<mxfile host="app.diagrams.net" modified="2023-05-30T18:03:48.944Z" agent="Mozilla/5.0 (Windows NT 10.0; Win64; x64) AppleWebKit/537.36 (KHTML, like Gecko) Chrome/113.0.0.0 Safari/537.36" version="21.3.2" etag="oQQXpXF7d95_z730AWj-" type="github">
  <diagram name="Page-1" id="ZtiJQE3OXIZ51Hu7LYVD">
    <mxGraphModel>
      <root>
        <mxCell id="0" />
        <mxCell id="1" parent="0" />
      </root>
    </mxGraphModel>
  </diagram>
</mxfile>
